<svg width="30" height="30" viewBox="0 0 30 30" fill="none" xmlns="http://www.w3.org/2000/svg">
<path d="M14.9219 24.9513L14.9844 7.39502M6.28502 5.04877L6.25377 20.945M4.72064 6.95877L4.87689 22.2919M23.8088 21.2581L23.84 5.04877M14.9844 7.39564C17.9513 6.43064 20.95 5.08564 23.8406 5.04877M6.28502 5.04877C9.73002 5.35377 12.1319 6.57189 14.9844 7.39564M14.955 23.385C17.8019 21.9444 20.7981 21.5488 23.8088 21.2581M6.25377 20.945C9.74627 21.2256 12.2538 22.3925 14.955 23.385M25.3419 7.08377L25.2169 22.4794M14.9531 24.3256C18.2436 23.1277 21.7152 22.5032 25.2169 22.4794M4.87689 22.2919C8.75127 22.2994 11.9019 23.2481 14.9531 24.3256M23.8356 7.11439L25.3419 7.08314M4.72064 6.95877L6.28064 7.17814" stroke="white" stroke-width="0.625" stroke-linecap="round" stroke-linejoin="round"/>
<path d="M18.6512 6.12939L18.8331 11.5256L17.8631 10.5244L16.9243 11.6513L16.8006 6.77252" stroke="white" stroke-width="0.625" stroke-linecap="round" stroke-linejoin="round"/>
<path d="M25.3312 8.36251L26.5625 8.33563V24.2006C22.4925 23.8381 18.8763 24.6506 14.9219 24.9519C11.1359 24.2529 7.28499 23.9694 3.4375 24.1063V8.46063L4.73563 8.45876" stroke="white" stroke-width="0.625" stroke-linecap="round" stroke-linejoin="round"/>
</svg>
