<svg width="30" height="30" viewBox="0 0 30 30" fill="none" xmlns="http://www.w3.org/2000/svg">
<path d="M15.9375 10.5C15.9375 10.2514 15.8387 10.0129 15.6629 9.83709C15.4871 9.66127 15.2486 9.5625 15 9.5625C14.7514 9.5625 14.5129 9.66127 14.3371 9.83709C14.1613 10.0129 14.0625 10.2514 14.0625 10.5V15.9375H8.4375C8.18886 15.9375 7.9504 16.0363 7.77459 16.2121C7.59877 16.3879 7.5 16.6264 7.5 16.875C7.5 17.1236 7.59877 17.3621 7.77459 17.5379C7.9504 17.7137 8.18886 17.8125 8.4375 17.8125H15C15.2486 17.8125 15.4871 17.7137 15.6629 17.5379C15.8387 17.3621 15.9375 17.1236 15.9375 16.875V10.5Z" fill="#FFFDFD"/>
<path d="M12.1875 1.875C12.1875 1.62636 12.2863 1.3879 12.4621 1.21209C12.6379 1.03627 12.8764 0.9375 13.125 0.9375H16.875C17.1237 0.9375 17.3621 1.03627 17.5379 1.21209C17.7138 1.3879 17.8125 1.62636 17.8125 1.875C17.8125 2.12364 17.7138 2.3621 17.5379 2.53791C17.3621 2.71373 17.1237 2.8125 16.875 2.8125V3.88125C19.425 4.24875 21.7388 5.34375 23.595 6.95625C23.6024 6.94803 23.6099 6.93991 23.6175 6.93188L24.2813 6.26812L23.6175 5.60625C23.4415 5.43046 23.3425 5.19194 23.3423 4.94316C23.3421 4.69438 23.4408 4.45572 23.6166 4.27969C23.7924 4.10365 24.0309 4.00465 24.2797 4.00448C24.5285 4.0043 24.7671 4.10296 24.9432 4.27875L27.5944 6.93188C27.6839 7.01836 27.7554 7.1218 27.8045 7.23618C27.8536 7.35056 27.8795 7.47358 27.8806 7.59806C27.8817 7.72254 27.8579 7.84599 27.8108 7.96121C27.7637 8.07642 27.6941 8.1811 27.606 8.26912C27.518 8.35714 27.4133 8.42676 27.2981 8.47389C27.1829 8.52103 27.0594 8.54475 26.935 8.54367C26.8105 8.54259 26.6875 8.51673 26.5731 8.4676C26.4587 8.41846 26.3553 8.34704 26.2688 8.2575L25.6069 7.59375L24.9432 8.2575C24.9352 8.26514 24.927 8.27264 24.9188 8.28C26.8279 10.4838 27.9488 13.2605 28.1047 16.1721C28.2605 19.0836 27.4425 21.9641 25.7796 24.3591C24.1168 26.7542 21.7037 28.5273 18.9213 29.3988C16.1389 30.2702 13.1455 30.1904 10.4135 29.1719C7.6815 28.1533 5.36642 26.2541 3.83357 23.7738C2.30072 21.2936 1.63739 18.3735 1.94823 15.4745C2.25908 12.5754 3.52641 9.86235 5.55024 7.76345C7.57408 5.66455 10.2392 4.2993 13.125 3.88313V2.8125C12.8764 2.8125 12.6379 2.71373 12.4621 2.53791C12.2863 2.3621 12.1875 2.12364 12.1875 1.875ZM15 5.625C13.5227 5.62512 12.0598 5.91623 10.6949 6.48171C9.33005 7.04719 8.08992 7.87597 7.04535 8.92071C4.93574 11.0307 3.75072 13.8923 3.75097 16.8759C3.75122 19.8596 4.93672 22.721 7.04668 24.8306C9.15664 26.9402 12.0182 28.1252 15.0019 28.125C17.9856 28.1248 20.847 26.9392 22.9566 24.8293C25.0662 22.7193 26.2512 19.8577 26.251 16.8741C26.2507 13.8904 25.0652 11.029 22.9553 8.91939C20.8453 6.80978 17.9837 5.62475 15 5.625V5.625Z" fill="#FFFDFD"/>
</svg>
