<svg width="30" height="30" viewBox="0 0 30 30" fill="none" xmlns="http://www.w3.org/2000/svg">
<path d="M15.1467 1.875C18.0952 1.875 20.5167 2.76703 21.9647 4.38609C23.137 5.69625 23.6138 7.41797 23.3808 9.50391C23.1895 11.2205 22.0345 12.3459 20.8678 13.3505C20.4258 13.7316 19.9467 14.0606 19.4405 14.408C18.4945 15.0567 17.5167 15.7275 16.7452 16.7808C16.1011 17.6611 15.8963 18.8025 15.8006 20.0995H12.8166C12.9234 18.3244 13.1705 17.0592 13.8506 16.1095C14.3367 15.4313 15.1214 14.8406 15.9525 14.2153C16.6556 13.6861 17.3827 13.1391 17.9738 12.495C19.605 10.7208 20.1553 9.04031 19.5652 7.63453C18.9694 6.21609 17.3672 5.40234 15.1697 5.40234C14.85 5.40234 14.5195 5.41969 14.1886 5.45531C12.1087 5.67562 10.6758 7.02281 10.2905 9.04453H6.63609C7.13016 4.52953 9.62484 2.19047 14.2378 1.90359C14.542 1.88484 14.8481 1.875 15.1467 1.875M15.1467 0.9375C14.827 0.9375 14.505 0.947344 14.1792 0.967969C8.72438 1.30734 5.87391 4.39641 5.625 9.9825H11.1277C11.1966 8.0475 12.2766 6.60094 14.2875 6.38766C14.5805 6.35632 14.875 6.34036 15.1697 6.33984C16.7967 6.33984 18.2194 6.85172 18.7012 7.99734C19.3139 9.45516 17.9386 11.1492 17.2847 11.8603C16.0744 13.1789 14.1084 14.1408 13.0894 15.5634C12.0905 16.9575 11.9128 18.7917 11.8359 21.0366H16.6856C16.7536 19.6012 16.8492 18.2264 17.5022 17.3344C18.5644 15.885 20.1506 15.2058 21.48 14.0611C22.7498 12.967 24.0858 11.6484 24.3122 9.6075C24.9553 3.84094 20.5462 0.9375 15.1467 0.9375V0.9375ZM14.3039 23.9691C15.4758 23.9691 16.4288 24.9014 16.4288 26.0475C16.4288 27.1936 15.4758 28.125 14.3039 28.125C13.1325 28.125 12.1795 27.1931 12.1795 26.047C12.1795 24.9009 13.1325 23.9691 14.3039 23.9691ZM14.3039 23.0316C12.6127 23.0316 11.242 24.382 11.242 26.0475C11.242 27.713 12.6127 29.0625 14.3039 29.0625C15.9956 29.0625 17.3663 27.7125 17.3663 26.047C17.3663 24.3816 15.9956 23.0316 14.3039 23.0316Z" fill="white"/>
</svg>
