<svg width="12" height="30" viewBox="0 0 12 30" fill="none" xmlns="http://www.w3.org/2000/svg">
<path d="M3.2757 17.364L2.47883 1.4266C2.47883 1.42659 2.47883 1.42658 2.47883 1.42657C2.46725 1.19442 2.65228 1 2.88457 1H8.36543C8.59772 1 8.78275 1.19442 8.77117 1.42657C8.77117 1.42658 8.77117 1.42659 8.77117 1.4266L7.9743 17.364L7.97429 17.3641M3.2757 17.364L7.97429 17.3641M3.2757 17.364C3.2757 17.364 3.27571 17.3641 3.27571 17.3641C3.28654 17.5803 3.46497 17.75 3.68145 17.75H7.56855C7.78503 17.75 7.96346 17.5803 7.97429 17.3641M3.2757 17.364L7.97429 17.3641M9.3125 25.3125C9.3125 27.3449 7.6574 29 5.625 29C3.5926 29 1.9375 27.3449 1.9375 25.3125C1.9375 23.2801 3.5926 21.625 5.625 21.625C7.6574 21.625 9.3125 23.2801 9.3125 25.3125Z" stroke="white" stroke-width="2"/>
</svg>
