<svg width="22" height="30" viewBox="0 0 22 30" fill="none" xmlns="http://www.w3.org/2000/svg">
<g clip-path="url(#clip0_8_4)">
<path d="M12.2844 13.3342L12.2844 13.3343L12.2911 13.3312C13.2651 12.8855 14.0729 12.3751 14.6011 11.7623C15.1817 11.0889 15.4297 10.2455 15.4297 9.32812C15.4297 8.23536 14.802 7.38605 13.9067 6.76997C12.9998 6.14584 11.9587 5.84375 10.8203 5.84375C9.65598 5.84375 8.60442 6.10457 7.72989 6.69437L7.71874 6.70189L7.7078 6.7097C7.03654 7.18918 6.12844 8.1856 5.02022 9.56924L1.27071 6.71139C3.59332 2.87394 6.89004 1 11.2656 1C12.3835 1 13.5204 1.21611 14.6816 1.6605C15.8548 2.10952 16.9046 2.70743 17.8362 3.45274C18.7444 4.17928 19.4874 5.07098 20.0665 6.13738C20.6305 7.17592 20.9062 8.25079 20.9062 9.375C20.9062 10.122 20.7992 10.8045 20.5933 11.429C20.3687 12.11 20.1291 12.6196 19.8884 12.9837C19.6497 13.3448 19.2915 13.7405 18.7881 14.1659C18.2467 14.6234 17.8425 14.9253 17.5629 15.0969C17.2346 15.2983 16.7706 15.5686 16.1658 15.9098C15.3761 16.353 14.7255 16.976 14.2141 17.7569C13.7663 18.4408 13.4062 19.1745 13.4062 19.875L13.4062 19.8757C13.4063 19.8866 13.4063 19.9236 13.3524 20H8.07768C8.01883 19.8766 7.99997 19.7748 7.99997 19.6875V18.6328C7.99997 17.6231 8.38746 16.6281 9.27251 15.6273C10.2078 14.5697 11.2131 13.8149 12.2844 13.3342ZM13.5 23.5V29H7.99997V23.5H13.5Z" stroke="white" stroke-width="2"/>
</g>
<defs>
<clipPath id="clip0_8_4">
<rect width="21.75" height="30" fill="white" transform="translate(0.25)"/>
</clipPath>
</defs>
</svg>
