<svg width="30" height="30" viewBox="0 0 30 30" fill="none" xmlns="http://www.w3.org/2000/svg">
<path d="M25.3125 12.6563H8.24999L12.9609 11.3907L21.1055 9.21097L24.7266 8.23831C24.7879 8.22288 24.8455 8.1952 24.8958 8.15693C24.9461 8.11867 24.9882 8.07061 25.0195 8.01566C25.0753 7.90739 25.0918 7.78318 25.0664 7.66409L24.0937 4.043C24.0472 3.86372 23.9652 3.69562 23.8524 3.54867C23.7397 3.40172 23.5986 3.27891 23.4375 3.18753C23.1143 3.00242 22.7312 2.9519 22.3711 3.0469L6.97265 7.17191L4.2539 7.89847C4.07556 7.94595 3.90841 8.02835 3.76216 8.14091C3.6159 8.25347 3.49344 8.39394 3.40188 8.55418C3.31031 8.71441 3.25147 8.89123 3.22875 9.07438C3.20603 9.25753 3.21989 9.44337 3.26952 9.62112L4.21874 13.1836V23.4375C4.21874 23.8105 4.3669 24.1682 4.63062 24.4319C4.89435 24.6956 5.25203 24.8438 5.62499 24.8438H24.375C24.748 24.8438 25.1056 24.6956 25.3694 24.4319C25.6331 24.1682 25.7812 23.8105 25.7812 23.4375V13.125C25.7812 13.0007 25.7319 12.8815 25.6439 12.7936C25.556 12.7057 25.4368 12.6563 25.3125 12.6563ZM15.1758 5.94144L19.7695 8.60159L12.9023 10.4414L8.30859 7.78128L15.1758 5.94144ZM22.6172 3.94925H22.7344C22.8383 3.95051 22.9391 3.98546 23.0215 4.04885C23.1039 4.11224 23.1635 4.20065 23.1914 4.30081L24.0352 7.46487L21.0586 8.26175L16.4648 5.60159L22.6172 3.94925ZM4.49999 8.81253L7.03124 8.13284L11.625 10.7813L5.01562 12.5508L4.17187 9.38675C4.1542 9.3275 4.14874 9.26528 4.15582 9.20386C4.16289 9.14244 4.18236 9.08309 4.21303 9.02941C4.24371 8.97573 4.28495 8.92883 4.33428 8.89155C4.3836 8.85427 4.43998 8.82739 4.49999 8.81253V8.81253ZM24.8437 23.4375C24.8437 23.5619 24.7944 23.6811 24.7064 23.769C24.6185 23.8569 24.4993 23.9063 24.375 23.9063H5.62499C5.50067 23.9063 5.38144 23.8569 5.29354 23.769C5.20563 23.6811 5.15624 23.5619 5.15624 23.4375V13.5938H24.8437V23.4375Z" fill="white"/>
</svg>
